<mxfile host="65bd71144e">
    <diagram id="Od63W_pdOBnkHrB-RWtR" name="Page-1">
        <mxGraphModel dx="918" dy="535" grid="1" gridSize="10" guides="1" tooltips="1" connect="1" arrows="1" fold="1" page="1" pageScale="1" pageWidth="827" pageHeight="1169" math="0" shadow="0">
            <root>
                <mxCell id="0"/>
                <mxCell id="1" parent="0"/>
                <mxCell id="4incZXHbuYqxuVHDM3kM-7" style="rounded=0;orthogonalLoop=1;jettySize=auto;html=1;endArrow=none;endFill=0;" parent="1" source="4incZXHbuYqxuVHDM3kM-9" target="4incZXHbuYqxuVHDM3kM-4" edge="1">
                    <mxGeometry relative="1" as="geometry"/>
                </mxCell>
                <mxCell id="4incZXHbuYqxuVHDM3kM-8" value="&amp;lt;&amp;lt;HTTPS&amp;gt;&amp;gt;" style="edgeLabel;html=1;align=center;verticalAlign=middle;resizable=0;points=[];" parent="4incZXHbuYqxuVHDM3kM-7" vertex="1" connectable="0">
                    <mxGeometry x="-0.2181" relative="1" as="geometry">
                        <mxPoint x="8" as="offset"/>
                    </mxGeometry>
                </mxCell>
                <mxCell id="4incZXHbuYqxuVHDM3kM-12" style="edgeStyle=none;rounded=0;orthogonalLoop=1;jettySize=auto;html=1;endArrow=none;endFill=0;" parent="1" source="4incZXHbuYqxuVHDM3kM-1" target="4incZXHbuYqxuVHDM3kM-9" edge="1">
                    <mxGeometry relative="1" as="geometry"/>
                </mxCell>
                <mxCell id="4incZXHbuYqxuVHDM3kM-13" value="&amp;lt;&amp;lt;HTTP&amp;gt;&amp;gt;" style="edgeLabel;html=1;align=center;verticalAlign=middle;resizable=0;points=[];" parent="4incZXHbuYqxuVHDM3kM-12" vertex="1" connectable="0">
                    <mxGeometry x="-0.3579" y="-2" relative="1" as="geometry">
                        <mxPoint x="14" y="-2" as="offset"/>
                    </mxGeometry>
                </mxCell>
                <mxCell id="4incZXHbuYqxuVHDM3kM-1" value="Client" style="verticalAlign=top;align=left;shape=cube;size=10;direction=south;fontStyle=4;html=1;boundedLbl=1;spacingLeft=5;" parent="1" vertex="1">
                    <mxGeometry x="20" y="160" width="180" height="160" as="geometry"/>
                </mxCell>
                <mxCell id="4incZXHbuYqxuVHDM3kM-2" value="Browser" style="verticalAlign=top;align=left;shape=cube;size=10;direction=south;html=1;boundedLbl=1;spacingLeft=5;fontStyle=4" parent="4incZXHbuYqxuVHDM3kM-1" vertex="1">
                    <mxGeometry width="150" height="100" relative="1" as="geometry">
                        <mxPoint x="10" y="50" as="offset"/>
                    </mxGeometry>
                </mxCell>
                <mxCell id="4incZXHbuYqxuVHDM3kM-3" value="Product Currency Helper Client" style="shape=module;align=left;spacingLeft=20;align=center;verticalAlign=top;whiteSpace=wrap;spacingTop=5;spacingRight=2;" parent="4incZXHbuYqxuVHDM3kM-1" vertex="1">
                    <mxGeometry x="18" y="90" width="122" height="50" as="geometry"/>
                </mxCell>
                <mxCell id="4incZXHbuYqxuVHDM3kM-4" value="Currency-api" style="verticalAlign=top;align=left;shape=cube;size=10;direction=south;fontStyle=4;html=1;boundedLbl=1;spacingLeft=5;" parent="1" vertex="1">
                    <mxGeometry x="540" y="200" width="160" height="80" as="geometry"/>
                </mxCell>
                <mxCell id="4incZXHbuYqxuVHDM3kM-16" style="edgeStyle=none;rounded=0;orthogonalLoop=1;jettySize=auto;html=1;endArrow=none;endFill=0;" parent="1" source="4incZXHbuYqxuVHDM3kM-9" target="4incZXHbuYqxuVHDM3kM-14" edge="1">
                    <mxGeometry relative="1" as="geometry"/>
                </mxCell>
                <mxCell id="4incZXHbuYqxuVHDM3kM-17" value="&amp;lt;&amp;lt;TCP port&amp;nbsp;15931&amp;gt;&amp;gt;" style="edgeLabel;html=1;align=center;verticalAlign=middle;resizable=0;points=[];" parent="4incZXHbuYqxuVHDM3kM-16" vertex="1" connectable="0">
                    <mxGeometry x="-0.3342" y="-1" relative="1" as="geometry">
                        <mxPoint x="15" y="-15" as="offset"/>
                    </mxGeometry>
                </mxCell>
                <mxCell id="4incZXHbuYqxuVHDM3kM-9" value="Server" style="verticalAlign=top;align=left;shape=cube;size=10;direction=south;fontStyle=4;html=1;boundedLbl=1;spacingLeft=5;" parent="1" vertex="1">
                    <mxGeometry x="280" y="160" width="180" height="160" as="geometry"/>
                </mxCell>
                <mxCell id="4incZXHbuYqxuVHDM3kM-10" value="Python3" style="verticalAlign=top;align=left;shape=cube;size=10;direction=south;html=1;boundedLbl=1;spacingLeft=5;fontStyle=4" parent="4incZXHbuYqxuVHDM3kM-9" vertex="1">
                    <mxGeometry width="150" height="100" relative="1" as="geometry">
                        <mxPoint x="10" y="50" as="offset"/>
                    </mxGeometry>
                </mxCell>
                <mxCell id="4incZXHbuYqxuVHDM3kM-11" value="Product Currency Helper Server" style="shape=module;align=left;spacingLeft=20;align=center;verticalAlign=top;whiteSpace=wrap;spacingTop=5;spacingRight=2;" parent="4incZXHbuYqxuVHDM3kM-9" vertex="1">
                    <mxGeometry x="18" y="90" width="122" height="50" as="geometry"/>
                </mxCell>
                <mxCell id="4incZXHbuYqxuVHDM3kM-14" value="Redis Labs (AWS)" style="verticalAlign=top;align=left;shape=cube;size=10;direction=south;fontStyle=0;html=1;boundedLbl=1;spacingLeft=5;" parent="1" vertex="1">
                    <mxGeometry x="520" y="10" width="160" height="110" as="geometry"/>
                </mxCell>
                <mxCell id="4incZXHbuYqxuVHDM3kM-15" value="Redis Database" style="verticalAlign=top;align=center;shape=cube;size=10;direction=south;html=1;boundedLbl=1;spacingLeft=5;" parent="4incZXHbuYqxuVHDM3kM-14" vertex="1">
                    <mxGeometry width="130" height="50" relative="1" as="geometry">
                        <mxPoint x="10" y="50" as="offset"/>
                    </mxGeometry>
                </mxCell>
                <mxCell id="2" value="ExchangeRate-API" style="verticalAlign=top;align=left;shape=cube;size=10;direction=south;fontStyle=4;html=1;boundedLbl=1;spacingLeft=5;" parent="1" vertex="1">
                    <mxGeometry x="520" y="360" width="160" height="80" as="geometry"/>
                </mxCell>
                <mxCell id="3" style="rounded=0;orthogonalLoop=1;jettySize=auto;html=1;endArrow=none;endFill=0;" parent="1" source="4incZXHbuYqxuVHDM3kM-9" target="2" edge="1">
                    <mxGeometry relative="1" as="geometry">
                        <mxPoint x="470" y="250" as="sourcePoint"/>
                        <mxPoint x="550" y="250" as="targetPoint"/>
                    </mxGeometry>
                </mxCell>
                <mxCell id="4" value="&amp;lt;&amp;lt;HTTPS&amp;gt;&amp;gt;" style="edgeLabel;html=1;align=center;verticalAlign=middle;resizable=0;points=[];" parent="3" vertex="1" connectable="0">
                    <mxGeometry x="-0.2181" relative="1" as="geometry">
                        <mxPoint x="8" as="offset"/>
                    </mxGeometry>
                </mxCell>
            </root>
        </mxGraphModel>
    </diagram>
</mxfile>